# xmcd
#
# Track frame offsets:
#	150
#	13165
#	28582
#	45684
#	60688
#	74781
#	90385
#	105601
#	121653
#	134406
#	149053
#	164582
#	180260
#	196673
#	211301
#	226905
#	243739
#	259713
#
# Disc length: 3694 seconds
#
# Revision: 1
# Processed by: cddbd v1.5.2PL0 Copyright (c) Steve Scherf et al.
# Submitted via: audiograbber 1.83.01
#
DISCID=030e6c12
DTITLE=Various Artist - Promo Only Country Radio 2010 - 06
DYEAR=2010
DGENRE=Country
TTITLE0=Randy Houser - I'm All About It
TTITLE1=Rodney Atkins - Farmer's Daughter
TTITLE2=Zac Brown Band - Free
TTITLE3=Josh Turner - All Over Me
TTITLE4=Colt Ford - Chicken and Biscuits
TTITLE5=Gwen Sebastian - V.I.P. (Barefoot Girl)
TTITLE6=Jason Mitchell - Slow and Steady
TTITLE7=Dierks Bentley - Up On The Ridge
TTITLE8=Alan Jackson - Hard Hat And A Hammer
TTITLE9=Fast Ryde - Top Down
TTITLE10=Chuck Wicks - Hold That Thought
TTITLE11=Easton Corbin - Roll With It
TTITLE12=Zona Jones - Prove Me Right
TTITLE13=Savannah Jack - I Know
TTITLE14=LoCash Cowboys - Here Comes Summer
TTITLE15=David Bradley - Soak It Up
TTITLE16=Nathan Lee Jones - Inside
TTITLE17=Ryan Bingham - The Weary Kind (Theme From Crazy Heart)
EXTD=
EXTT0=
EXTT1=
EXTT2=
EXTT3=
EXTT4=
EXTT5=
EXTT6=
EXTT7=
EXTT8=
EXTT9=
EXTT10=
EXTT11=
EXTT12=
EXTT13=
EXTT14=
EXTT15=
EXTT16=
EXTT17=
PLAYORDER=
